<?xml version="1.0" encoding="utf-8"?>
<!-- Generator: Adobe Illustrator 19.1.0, SVG Export Plug-In . SVG Version: 6.00 Build 0)  -->
<svg version="1.1" id="Layer_1" xmlns="http://www.w3.org/2000/svg" xmlns:xlink="http://www.w3.org/1999/xlink" x="0px" y="0px"
	 viewBox="-234 357.5 141.8 78.5" style="enable-background:new -234 357.5 141.8 78.5;" xml:space="preserve">
<style type="text/css">
	.st0{fill:#FFFFFF;}
</style>
<path class="st0" d="M-195.4,424.9h-0.5c-0.4,0-0.4,0.2-0.4,0.3v5.2h-4.6v-5.2c0-0.1,0-0.3-0.4-0.3h-0.5c-0.4,0-0.4,0.2-0.4,0.3
	v10.5c0,0.1,0,0.3,0.4,0.3h0.5c0.4,0,0.4-0.2,0.4-0.3v-3.8h4.7v3.8c0,0.1,0,0.3,0.4,0.3h0.5c0.4,0,0.4-0.2,0.4-0.3v-10.5
	C-195,425.1-195,424.9-195.4,424.9z M-216.2,430.1c0,0,0.1-0.1,0.1-0.2v-4.8c0-0.1,0-0.3-0.4-0.3h-5.7c-0.4,0-0.4,0.2-0.4,0.3v10.5
	c0,0.1,0,0.3,0.4,0.3h0.5c0.4,0,0.4-0.2,0.4-0.3V432h2.9l1.3,3.6c0.1,0.3,0.1,0.3,0.6,0.3h0.7c0.1,0,0.2,0,0.2-0.1
	c0-0.1,0-0.2,0-0.3l-1.7-4.3L-216.2,430.1z M-218.4,430.7h-2.9v-4.4h3.8v3.5L-218.4,430.7z M-206,434.6h-4.2l-0.6-1.8V428l0.6-1.7
	h4.2c0.1,0,0.3,0,0.3-0.4v-0.5c0-0.4-0.2-0.4-0.3-0.4h-4.7c-0.3,0-0.5,0.2-0.6,0.4l-0.9,2.6c0,0.1,0,0.1,0,0.2v4.5
	c0,0.1,0,0.2,0,0.2l1,2.6c0.1,0.3,0.4,0.4,0.6,0.4h4.7c0.1,0,0.3,0,0.3-0.4V435C-205.8,434.6-205.9,434.6-206,434.6z M-162.6,426.3
	h4.2c0.1,0,0.3,0,0.3-0.4v-0.5c0-0.4-0.2-0.4-0.3-0.4h-4.7c-0.3,0-0.5,0.2-0.6,0.4l-0.9,2.6c0,0.1,0,0.1,0,0.2v4.5
	c0,0.1,0,0.2,0,0.2l0.9,2.6c0.1,0.3,0.4,0.4,0.6,0.4h4.7c0.1,0,0.3,0,0.3-0.4V435c0-0.4-0.2-0.4-0.3-0.4h-4.2l-0.6-1.8V428
	L-162.6,426.3z M-187.3,424.9h-3.8c-0.1,0-0.3,0-0.3,0.4v0.5c0,0.4,0.2,0.4,0.3,0.4h1.2v8.3h-1.2c-0.1,0-0.3,0-0.3,0.4v0.5
	c0,0.4,0.2,0.4,0.3,0.4h3.8c0.1,0,0.3,0,0.3-0.4v-0.5c0-0.4-0.2-0.4-0.3-0.4h-1.2v-8.3h1.2c0.1,0,0.3,0,0.3-0.4v-0.5
	C-187.1,424.9-187.2,424.9-187.3,424.9z M-177.5,424.9h-6.5c-0.1,0-0.3,0-0.3,0.4v0.5c0,0.4,0.2,0.4,0.3,0.4h2.5v9.4
	c0,0.1,0,0.3,0.4,0.3h0.5c0.4,0,0.4-0.2,0.4-0.3v-9.4h2.5c0.1,0,0.3,0,0.3-0.4v-0.5C-177.3,424.9-177.4,424.9-177.5,424.9z
	 M-148.9,424.9h-6.4c-0.1,0-0.3,0-0.3,0.4v0.5c0,0.4,0.2,0.4,0.3,0.4h2.5v9.4c0,0.1,0,0.3,0.4,0.3h0.5c0.4,0,0.4-0.2,0.4-0.3v-9.4
	h2.5c0.1,0,0.3,0,0.3-0.4v-0.5C-148.7,424.9-148.8,424.9-148.9,424.9z M-168,424.9h-5.8c-0.1,0-0.3,0-0.3,0.4v10.2
	c0,0.4,0.2,0.4,0.3,0.4h5.8c0.1,0,0.3,0,0.3-0.4V435c0-0.4-0.2-0.4-0.3-0.4h-4.7v-3.7h2.9c0.1,0,0.3,0,0.3-0.4V430
	c0-0.4-0.2-0.4-0.3-0.4h-2.9v-3.3h4.7c0.1,0,0.3,0,0.3-0.4v-0.5C-167.7,424.9-167.9,424.9-168,424.9z M-145.3,428.3l0.7-2h3.9
	c0.1,0,0.3,0,0.3-0.4v-0.5c0-0.4-0.2-0.4-0.3-0.4h-4.4c-0.3,0-0.5,0.2-0.6,0.5l-1,2.8c-0.1,0.2,0,0.4,0.1,0.6l5.4,3.9l-0.6,2h-4.3
	c-0.1,0-0.3,0-0.3,0.4v0.5c0,0.4,0.2,0.4,0.3,0.4h4.8c0.3,0,0.6-0.2,0.6-0.5l1-2.8c0.1-0.2,0-0.4-0.1-0.6L-145.3,428.3z M-227,424.9
	h-6.1c-0.4,0-0.4,0.2-0.4,0.3v10.5c0,0.1,0,0.3,0.4,0.3h0.5c0.4,0,0.4-0.2,0.4-0.3v-3.6h4.3v3.6c0,0.1,0,0.3,0.4,0.3h0.5
	c0.4,0,0.4-0.2,0.4-0.3v-10.5C-226.5,425.1-226.5,424.9-227,424.9z M-227.9,430.7h-4.3v-4.4h4.3
	C-227.9,426.3-227.9,430.7-227.9,430.7z M-225.9,374.4c0.5,0,1-0.3,1.2-0.9l2.5-6.9c0.1-0.3,0.1-0.6,0-0.9l-2.4-6.8
	c-0.2-0.5-0.7-0.9-1.2-0.9h-7.3c-0.6,0-0.9,0.3-0.9,0.7v15c0,0.5,0.3,0.7,0.9,0.7C-233.1,374.4-225.9,374.4-225.9,374.4z
	 M-231.4,360.6h4.7l2,5.6l-2,5.7h-4.7V360.6z M-219,374.4h7.6c0.5,0,0.7-0.3,0.7-0.9v-0.7c0-0.7-0.2-0.9-0.7-0.9h-2.6v-11.3h2.6
	c0.5,0,0.7-0.3,0.7-0.9V359c0-0.6-0.2-0.9-0.7-0.9h-7.6c-0.5,0-0.8,0.3-0.8,0.9v0.7c0,0.6,0.3,0.9,0.8,0.9h2.5v11.3h-2.5
	c-0.5,0-0.8,0.3-0.8,0.9v0.7C-219.7,374.1-219.5,374.4-219,374.4z M-192.3,359l-3.2-1.4c-0.1,0-0.3-0.1-0.5-0.1
	c-0.1,0-0.4,0.1-0.4,0.1l-3.3,1.2l-3.2-1.2c-0.1,0-0.3-0.1-0.5-0.1c-0.1,0-0.4,0.1-0.4,0.1l-3.2,1.4c-0.5,0.2-0.9,0.7-0.9,1.2v13.5
	c0,0.5,0.3,0.7,0.9,0.7h0.7c0.6,0,0.9-0.3,0.9-0.7v-12.5l1.9-1l2.4,0.9v12.6c0,0.5,0.3,0.7,0.9,0.7h0.7c0.7,0,0.9-0.3,0.9-0.7v-12.6
	l2.4-0.9l1.9,1v12.5c0,0.5,0.3,0.7,0.9,0.7h0.7c0.6,0,0.9-0.3,0.9-0.7v-13.5C-191.4,359.7-191.8,359.2-192.3,359z M-187.8,374.4h7.6
	c0.5,0,0.7-0.3,0.7-0.9v-0.7c0-0.7-0.2-0.9-0.7-0.9h-2.6v-11.3h2.6c0.5,0,0.7-0.3,0.7-0.9V359c0-0.6-0.2-0.9-0.7-0.9h-7.6
	c-0.5,0-0.8,0.3-0.8,0.9v0.7c0,0.6,0.3,0.9,0.8,0.9h2.5v11.3h-2.5c-0.5,0-0.8,0.3-0.8,0.9v0.7C-188.6,374.1-188.3,374.4-187.8,374.4
	z M-172.1,373.7c0,0.5,0.3,0.7,0.9,0.7h0.7c0.6,0,1-0.3,1-0.7v-13.1h3.9c0.5,0,0.7-0.3,0.7-0.9V359c0-0.6-0.2-0.9-0.7-0.9H-176
	c-0.5,0-0.7,0.3-0.7,0.9v0.7c0,0.6,0.2,0.9,0.7,0.9h3.9V373.7z M-160.7,374.4h0.7c0.6,0,1-0.3,1-0.7v-4.9h3.6l1.8,4.9
	c0.2,0.6,0.4,0.7,1.2,0.7h1c0.4,0,0.8-0.4,0.6-1l-2.3-5.8l2.4-3.6c0.3-0.3,0.3-0.7,0.2-1.1l-1.4-4c-0.2-0.5-0.7-0.9-1.2-0.9h-7.5
	c-0.7,0-1,0.2-1,0.7v15C-161.7,374.2-161.4,374.4-160.7,374.4z M-159.1,360.6h4.9l0.8,2.6l-2.1,3.1h-3.7L-159.1,360.6L-159.1,360.6z
	 M-146.6,374.4h7.6c0.5,0,0.7-0.3,0.7-0.9v-0.7c0-0.7-0.2-0.9-0.7-0.9h-2.6v-11.3h2.6c0.5,0,0.7-0.3,0.7-0.9V359
	c0-0.6-0.2-0.9-0.7-0.9h-7.6c-0.5,0-0.7,0.3-0.7,0.9v0.7c0,0.6,0.3,0.9,0.8,0.9h2.5v11.3h-2.6c-0.5,0-0.7,0.3-0.7,0.9v0.7
	C-147.4,374.1-147.1,374.4-146.6,374.4z M-128.9,374.9l4.3-1.5c0.5-0.2,0.9-0.7,0.9-1.2v-11.9c0-0.5-0.4-1-0.9-1.2l-4.3-1.5
	c-0.3-0.1-0.6-0.1-0.8,0l-4.3,1.5c-0.5,0.2-0.9,0.7-0.9,1.2V372c0,0.6,0.4,1.1,0.9,1.2l4.3,1.6C-129.5,375-129.2,375-128.9,374.9z
	 M-132.4,361.3l3.1-1.1l3,1.1v10l-3,1.1l-3.1-1.1V361.3z M-110.1,373.6l1.4-4.1c0.1-0.4,0.2-1.1,0-1.4l-9-5.4l0.7-2.1h6.9
	c0.4,0,0.7-0.3,0.7-0.9V359c0-0.6-0.2-0.9-0.7-0.9h-7.8c-0.6,0-1.1,0.4-1.2,0.9l-1.4,4c-0.1,0.4-0.1,0.8,0.1,1.1l9.1,5.4l-0.8,2.4
	h-7.3c-0.5,0-0.8,0.3-0.8,0.9v0.7c0,0.6,0.3,0.9,0.8,0.9h8.2C-110.7,374.4-110.2,374.1-110.1,373.6z M-222.4,387.8
	c0-0.1,0-0.4-0.1-0.4l-1.4-4c-0.2-0.5-0.7-0.9-1.2-0.9h-7.5c-0.6,0-1,0.2-1,0.7v15c0,0.5,0.3,0.7,1,0.7h0.7c0.7,0,1-0.3,1-0.7v-5
	h5.9c0.5,0,1-0.4,1.2-0.9l1.4-4C-222.5,388.2-222.4,388-222.4,387.8z M-226,390.6h-4.9v-5.5h4.9l1,2.8L-226,390.6z M-210.8,398.2
	c0,0.5,0.3,0.7,0.9,0.7h0.7c0.6,0,0.9-0.3,0.9-0.7v-13.4c0-0.5-0.4-1-0.9-1.2l-4.2-1.5c-0.3-0.1-0.6-0.1-0.9,0l-4.2,1.5
	c-0.5,0.2-0.9,0.7-0.9,1.2v13.4c0,0.5,0.3,0.7,1,0.7h0.7c0.7,0,1-0.3,1-0.7v-5.1l2.6,0.9c0.2,0,0.3,0.1,0.5,0.1c0.1,0,0.3,0,0.4-0.1
	l2.6-0.9v5.1H-210.8z M-213.8,391.4l-3-1.1v-4.6l3-1.1l3,1.1v4.6L-213.8,391.4z M-194.8,383.4c-0.2-0.5-0.7-0.9-1.2-0.9h-7.5
	c-0.6,0-1,0.2-1,0.7v15c0,0.5,0.3,0.7,1,0.7h0.7c0.7,0,1-0.3,1-0.7v-5h5.9c0.5,0,1-0.4,1.2-0.9l1.4-4c0-0.1,0.1-0.3,0.1-0.4
	s0-0.4-0.1-0.4L-194.8,383.4z M-196.9,390.6h-4.9v-5.5h4.9l1,2.8L-196.9,390.6z M-181.7,398.2c0,0.5,0.3,0.7,0.9,0.7h0.7
	c0.6,0,0.9-0.3,0.9-0.7v-13.4c0-0.5-0.4-1-0.9-1.2l-4.2-1.5c-0.3-0.1-0.6-0.1-0.9,0l-4.3,1.5c-0.5,0.2-0.9,0.7-0.9,1.2v13.4
	c0,0.5,0.3,0.7,1,0.7h0.7c0.7,0,1-0.3,1-0.7v-5.1l2.6,0.9c0.2,0,0.3,0.1,0.5,0.1c0.1,0,0.3,0,0.4-0.1l2.6-0.9L-181.7,398.2
	L-181.7,398.2z M-184.7,391.4l-3-1.1v-4.6l3-1.1l3,1.1v4.6L-184.7,391.4z M-164.2,387.8c0-0.1,0-0.4-0.1-0.4l-1.4-4
	c-0.2-0.5-0.7-0.9-1.2-0.9h-7.5c-0.6,0-1,0.2-1,0.7v15c0,0.5,0.3,0.7,1,0.7h0.7c0.7,0,1-0.3,1-0.7v-5h5.9c0.5,0,1-0.4,1.2-0.9l1.4-4
	C-164.3,388.2-164.2,388-164.2,387.8z M-167.8,390.6h-4.9v-5.5h4.9l1,2.8L-167.8,390.6z M-151.4,385.1c0.5,0,0.7-0.3,0.7-0.9v-0.8
	c0-0.6-0.2-0.9-0.7-0.9h-9.1c-0.5,0-0.7,0.3-0.7,0.9V398c0,0.6,0.3,0.9,0.7,0.9h9.1c0.5,0,0.7-0.3,0.7-0.9v-0.7
	c0-0.6-0.2-0.9-0.7-0.9h-7.2v-4.6h4.6c0.5,0,0.7-0.3,0.7-0.9v-0.7c0-0.6-0.2-0.9-0.7-0.9h-4.6v-4.1h7.2V385.1z M-136.8,382.5h-10.3
	c-0.5,0-0.7,0.3-0.7,0.9v0.7c0,0.6,0.2,0.9,0.7,0.9h3.9v13.1c0,0.5,0.3,0.7,0.9,0.7h0.7c0.6,0,1-0.3,1-0.7v-13h3.9
	c0.5,0,0.7-0.3,0.7-0.9v-0.8C-136.1,382.8-136.3,382.5-136.8,382.5z M-123.1,383.4c-0.2-0.5-0.7-0.9-1.2-0.9h-7.5
	c-0.7,0-1,0.2-1,0.7v15c0,0.5,0.3,0.7,1,0.7h0.7c0.6,0,1-0.3,1-0.7v-4.9h3.6l1.8,4.9c0.2,0.6,0.4,0.7,1.2,0.7h1c0.4,0,0.8-0.4,0.6-1
	l-2.3-5.8l2.4-3.6c0.3-0.3,0.3-0.7,0.2-1.1L-123.1,383.4z M-126.6,390.7h-3.7V385h4.9l0.8,2.6L-126.6,390.7z M-107.8,383.5l-4.3-1.5
	c-0.3-0.1-0.6-0.1-0.8,0l-4.3,1.5c-0.5,0.2-0.9,0.7-0.9,1.2v11.7c0,0.6,0.4,1.1,0.9,1.2l4.3,1.6c0.3,0.1,0.6,0.1,0.8,0l4.3-1.5
	c0.5-0.2,0.9-0.7,0.9-1.2v-11.7C-107,384.2-107.3,383.7-107.8,383.5z M-109.5,395.7l-3,1.1l-3.1-1.1v-9.9l3.1-1.1l3,1.1V395.7z
	 M-93.2,382.5h-0.7c-0.6,0-0.9,0.2-0.9,0.7v13.1h-3.6l-2.4-1.2v-11.9c0-0.5-0.3-0.7-0.9-0.7h-0.7c-0.6,0-1,0.2-1,0.7v12.6
	c0,0.6,0.4,1,0.9,1.3l3.7,1.8c0.1,0,0.3,0.1,0.4,0.1h5.4c0.5-0.2,0.9-0.7,0.9-1.2v-14.6C-92.2,382.7-92.5,382.5-93.2,382.5z"/>
</svg>
