<?xml version="1.0" encoding="utf-8"?>
<!-- Generator: Adobe Illustrator 16.0.0, SVG Export Plug-In . SVG Version: 6.00 Build 0)  -->
<!DOCTYPE svg PUBLIC "-//W3C//DTD SVG 1.1//EN" "http://www.w3.org/Graphics/SVG/1.1/DTD/svg11.dtd">
<svg version="1.1" xmlns="http://www.w3.org/2000/svg" xmlns:xlink="http://www.w3.org/1999/xlink" x="0px" y="0px"
	 width="86.792px" height="86.589px" viewBox="0 0 86.792 86.589" enable-background="new 0 0 86.792 86.589" xml:space="preserve">
<g id="arrow-left">
	<path fill="#EFA8BC" d="M32.466,38.502l-1.51-1.509l-6.189,6.185l6.189,6.189l1.51-1.51l-3.612-3.611H39.66v-2.134H28.854
		L32.466,38.502z"/>
</g>
<g id="arrow-right">
	<path fill="#EFA8BC" d="M55.871,36.993l-1.51,1.509l3.612,3.61H47.167v2.134h10.806l-3.612,3.611l1.51,1.51l6.188-6.189
		L55.871,36.993z"/>
</g>
<g id="circle">
	<path fill="none" stroke="#EFA8BC" stroke-width="1.7008" stroke-miterlimit="10" d="M85.664,43.185
		c0,23.337-18.916,42.253-42.25,42.253c-23.334,0-42.25-18.917-42.25-42.253c0-23.331,18.916-42.247,42.25-42.247
		C66.748,0.938,85.664,19.854,85.664,43.185z"/>
</g>
</svg>
