<?xml version="1.0" encoding="utf-8"?>
<!-- Generator: Adobe Illustrator 19.1.0, SVG Export Plug-In . SVG Version: 6.00 Build 0)  -->
<svg version="1.1" id="Layer_1" xmlns="http://www.w3.org/2000/svg" xmlns:xlink="http://www.w3.org/1999/xlink" x="0px" y="0px"
	 viewBox="-916 538 86.8 45.9" style="enable-background:new -916 538 86.8 45.9;" xml:space="preserve">
<style type="text/css">
	.st0{fill:#EFA8BC;}
</style>
<g id="arrow-left">
	<path class="st0" d="M-908.3,556.3l-1.5-1.5l-6.2,6.2l6.2,6.2l1.5-1.5l-3.6-3.6h10.8v-2.1h-10.8L-908.3,556.3z"/>
</g>
<g id="arrow-right">
	<path class="st0" d="M-835.4,554.8l-1.5,1.5l3.6,3.6h-10.8v2.1h10.8l-3.6,3.6l1.5,1.5l6.2-6.2L-835.4,554.8z"/>
</g>
<g id="circle">
	<g>
		<path class="st0" d="M-872.6,584c-12.7,0-23-10.3-23-23c0-12.7,10.3-23,23-23s23,10.3,23,23C-849.6,573.7-859.9,584-872.6,584z
			 M-872.6,539.7c-11.7,0-21.3,9.5-21.3,21.3c0,11.7,9.5,21.3,21.3,21.3c11.7,0,21.3-9.5,21.3-21.3
			C-851.3,549.3-860.9,539.7-872.6,539.7z"/>
	</g>
</g>
</svg>
