<?xml version="1.0" encoding="utf-8"?>
<!-- Generator: Adobe Illustrator 19.1.0, SVG Export Plug-In . SVG Version: 6.00 Build 0)  -->
<svg version="1.1" id="Layer_1" xmlns="http://www.w3.org/2000/svg" xmlns:xlink="http://www.w3.org/1999/xlink" x="0px" y="0px"
	 viewBox="-916 497.4 86.8 86.6" style="enable-background:new -916 497.4 86.8 86.6;" xml:space="preserve">
<style type="text/css">
	.st0{fill:#EFA8BC;}
</style>
<g id="arrow-left">
	<path class="st0" d="M-883.5,535.9l-1.5-1.5l-6.2,6.2l6.2,6.2l1.5-1.5l-3.6-3.6h10.8v-2.1h-10.8L-883.5,535.9z"/>
</g>
<g id="arrow-right">
	<path class="st0" d="M-860.1,534.4l-1.5,1.5l3.6,3.6h-10.8v2.1h10.8l-3.6,3.6l1.5,1.5l6.2-6.2L-860.1,534.4z"/>
</g>
<g id="circle">
	<g>
		<path class="st0" d="M-872.6,583.7c-23.8,0-43.1-19.3-43.1-43.1c0-23.8,19.3-43.1,43.1-43.1s43.1,19.3,43.1,43.1
			C-829.5,564.4-848.8,583.7-872.6,583.7z M-872.6,499.2c-22.8,0-41.4,18.6-41.4,41.4c0,22.8,18.6,41.4,41.4,41.4
			c22.8,0,41.4-18.6,41.4-41.4C-831.2,517.8-849.8,499.2-872.6,499.2z"/>
	</g>
</g>
</svg>
