<?xml version="1.0" encoding="utf-8"?>
<!-- Generator: Adobe Illustrator 16.0.0, SVG Export Plug-In . SVG Version: 6.00 Build 0)  -->
<!DOCTYPE svg PUBLIC "-//W3C//DTD SVG 1.1//EN" "http://www.w3.org/Graphics/SVG/1.1/DTD/svg11.dtd">
<svg version="1.1" id="Layer_1" xmlns="http://www.w3.org/2000/svg" xmlns:xlink="http://www.w3.org/1999/xlink" x="0px" y="0px"
	 width="175.069px" height="175.069px" viewBox="0 0 175.069 175.069" enable-background="new 0 0 175.069 175.069"
	 xml:space="preserve">
<g>
	<polygon fill="#231F20" points="160.896,150.874 110.167,100.145 100.145,110.167 150.874,160.896 116.96,160.896 116.96,175.069 
		175.068,175.069 175.069,116.96 160.896,116.96 	"/>
	<polygon fill="#231F20" points="58.108,14.173 58.108,0 0,0 0,58.109 14.173,58.109 14.173,24.195 64.902,74.923 74.923,64.902 
		24.195,14.173 	"/>
	<polygon fill="#231F20" points="116.96,0 116.96,14.173 150.874,14.173 100.145,64.902 110.167,74.924 160.896,24.195 
		160.896,58.108 175.069,58.108 175.069,0 	"/>
	<polygon fill="#231F20" points="64.902,100.145 14.173,150.874 14.173,116.96 0,116.96 0,175.068 58.109,175.069 58.109,160.896 
		24.195,160.895 74.923,110.167 	"/>
</g>
</svg>
