<?xml version="1.0" encoding="UTF-8"?>
<!DOCTYPE svg  PUBLIC '-//W3C//DTD SVG 1.1//EN'  'http://www.w3.org/Graphics/SVG/1.1/DTD/svg11.dtd'>
<?xml-stylesheet type="text/css" href="/css/logo.css" ?>
<svg width="185.58px" height="35.991px" enable-background="new 0 0 185.579 35.991" version="1.1" viewBox="0 0 185.579 35.991" xml:space="preserve" xmlns="http://www.w3.org/2000/svg">
	<path d="M5.287,0.256H0v17.966h3.105v-5.826h2.182c2.413,0,4.337-1.899,4.337-4.363V4.594C9.625,2.181,7.7,0.256,5.287,0.256z    M6.468,8.238c0,0.642-0.565,1.181-1.283,1.181H3.105v-6.16h2.079c0.718,0,1.283,0.539,1.283,1.206V8.238z"/>
	<path d="m15.217 0.256l-2.669 10.112v7.854h3.028v-5.338h4.158v5.338h3.029v-7.854l-2.67-10.112h-4.876zm0.641 9.625l1.54-6.622h0.513l1.54 6.622h-3.593z"/>
	<path d="m36.748 18.222l-2.823-6.75c1.206-0.77 2.001-2.182 2.001-3.67v-3.208c0-2.413-1.925-4.337-4.337-4.337h-5.312v17.966h3.08v-6.108h1.54l2.464 6.108h3.387zm-3.953-10.317c0 0.667-0.564 1.206-1.258 1.206h-2.182v-5.852h2.182c0.693 0 1.258 0.539 1.258 1.206v3.44z"/>
	<polygon points="40.312 3.131 43.803 3.131 43.803 15.348 40.312 15.348 40.312 18.222 50.399 18.222 50.399 15.348 46.934 15.348 46.934 3.131 50.399 3.131 50.399 0.256 40.312 0.256"/>
	<path d="m58.917 18.479c2.798 0 5.005-2.284 5.005-5.031 0-5.903-7.083-5.723-7.083-8.675 0-1.001 0.847-1.771 1.899-1.771 1.104 0 1.899 1.027 1.899 2.31h3.08c0-3.208-2.207-5.312-4.979-5.312-2.771 0-5.004 2.156-5.004 5.004 0 5.646 7.083 4.928 7.083 8.624 0 0.95-0.898 1.848-1.976 1.848h-0.283c-1.078 0-2.002-0.95-2.002-2.028v-0.821h-3.08v0.821c0 2.747 2.233 5.031 5.03 5.031h0.411z"/>
	<polygon points="80.779 18.222 83.885 18.222 83.885 10.343 89.403 10.343 89.403 7.237 83.885 7.237 83.885 3.259 89.993 3.259 89.993 0.256 80.779 0.256"/>
	<polygon points="93.687 3.131 97.177 3.131 97.177 15.348 93.687 15.348 93.687 18.222 103.77 18.222 103.77 15.348 100.31 15.348 100.31 3.131 103.77 3.131 103.77 0.256 93.687 0.256"/>
	<polygon points="111.19 0.256 108.11 0.256 108.11 18.222 118.09 18.222 118.09 15.219 111.19 15.219"/>
	<polygon points="120.37 3.131 123.86 3.131 123.86 15.348 120.37 15.348 120.37 18.222 130.46 18.222 130.46 15.348 127 15.348 127 3.131 130.46 3.131 130.46 0.256 120.37 0.256"/>
	<path d="m139.75 0.256h-5.287v17.966h3.105v-5.826h2.182c2.413 0 4.337-1.899 4.337-4.363v-3.439c0-2.413-1.924-4.338-4.337-4.338zm1.181 7.982c0 0.642-0.565 1.181-1.283 1.181h-2.079v-6.16h2.079c0.718 0 1.283 0.539 1.283 1.206v3.773z"/>
	<path d="m153.09 0.256h-5.287v17.966h3.105v-5.826h2.182c2.413 0 4.337-1.899 4.337-4.363v-3.439c1e-3 -2.413-1.924-4.338-4.337-4.338zm1.181 7.982c0 0.642-0.565 1.181-1.283 1.181h-2.079v-6.16h2.079c0.718 0 1.283 0.539 1.283 1.206v3.773z"/>
	<path d="m166.18 0h-0.411c-2.772 0-5.004 2.284-5.004 5.03v8.393c0 2.746 2.232 5.056 5.004 5.056h0.411c2.772 0 4.979-2.284 4.979-5.031v-8.418c0-2.746-2.207-5.03-4.979-5.03zm1.925 13.603c0 1.052-0.924 1.874-2.001 1.874h-0.257c-1.078 0-2.002-0.847-2.002-1.899v-8.7c0-1.053 0.924-1.874 2.002-1.874h0.282c1.052 0 1.976 0.821 1.976 1.874v8.725z"/>
	<path d="m182.47 0.256v13.269c0 1.078-0.924 1.951-2.001 1.951h-0.257c-1.104 0-2.027-0.898-2.027-1.977v-13.243h-3.08v13.167c0 2.746 2.233 5.056 5.03 5.056h0.411c2.798 0 5.031-2.284 5.031-5.031v-13.192h-3.107z"/>
	<polygon points="0 35.902 0.744 35.902 0.744 32.982 2.814 32.982 2.814 32.292 0.744 32.292 0.744 30.406 3.027 30.406 3.027 29.707 0 29.707"/>
	<polygon points="4.936 30.397 6.271 30.397 6.271 35.212 4.936 35.212 4.936 35.902 8.352 35.902 8.352 35.212 7.016 35.212 7.016 30.397 8.352 30.397 8.352 29.707 4.936 29.707"/>
	<polygon points="11.171 29.707 10.419 29.707 10.419 35.902 13.48 35.902 13.48 35.203 11.171 35.203"/>
	<polygon points="16.921 32.221 16.885 32.221 16.044 29.707 15.098 29.707 15.098 35.902 15.85 35.902 15.85 31.389 15.823 30.973 15.858 30.964 15.982 31.389 16.558 32.973 17.248 32.973 17.823 31.38 17.947 30.964 17.982 30.973 17.956 31.389 17.956 35.902 18.708 35.902 18.708 29.707 17.762 29.707"/>
	<path d="m27.498 29.707h-1.638v6.195h1.638c0.929 0 1.673-0.726 1.673-1.628v-2.938c0-0.903-0.744-1.629-1.673-1.629zm0.92 4.576c0 0.522-0.416 0.92-0.946 0.92h-0.867v-4.779h0.867c0.53 0 0.946 0.398 0.946 0.92v2.939z"/>
	<polygon points="31.114 30.397 32.45 30.397 32.45 35.212 31.114 35.212 31.114 35.902 34.53 35.902 34.53 35.212 33.194 35.212 33.194 30.397 34.53 30.397 34.53 29.707 31.114 29.707"/>
	<path d="m39.58 32.265v-1.177c0-0.77-0.628-1.381-1.416-1.381h-1.69v6.195h0.744v-2.257h0.796l0.965 2.257h0.806l-1.009-2.381c0.503-0.221 0.804-0.689 0.804-1.256zm-1.442 0.69h-0.92v-2.531h0.92c0.381 0 0.69 0.301 0.69 0.672v1.195c0 0.363-0.309 0.664-0.69 0.664z"/>
	<polygon points="42.276 32.982 44.347 32.982 44.347 32.292 42.276 32.292 42.276 30.406 44.56 30.406 44.56 29.707 41.533 29.707 41.533 35.902 44.63 35.902 44.63 35.203 42.276 35.203"/>
	<path d="m48.397 30.335c0.521 0 0.946 0.407 0.946 0.92h0.744c0-0.911-0.735-1.637-1.673-1.637h-0.044c-0.938 0-1.681 0.726-1.681 1.628v3.106c0 0.903 0.743 1.637 1.681 1.637h0.045c0.938 0 1.673-0.726 1.673-1.628v-0.177h-0.744v0.186c0 0.514-0.425 0.92-0.946 0.92-0.54 0-0.956-0.416-0.956-0.929v-3.106c-1e-3 -0.512 0.415-0.92 0.955-0.92z"/>
	<polygon points="51.465 30.415 52.774 30.415 52.774 35.902 53.545 35.902 53.545 30.415 54.863 30.415 54.863 29.707 51.465 29.707"/>
	<path d="m58.188 29.619h-0.151c-0.938 0-1.681 0.726-1.681 1.628v3.106c0 0.903 0.743 1.637 1.681 1.637h0.151c0.929 0 1.681-0.726 1.681-1.628v-3.115c0-0.902-0.752-1.628-1.681-1.628zm0.92 4.752c0 0.514-0.407 0.92-0.947 0.92h-0.097c-0.54 0-0.956-0.416-0.956-0.929v-3.106c0-0.513 0.416-0.92 0.956-0.92h0.097c0.54 0 0.947 0.407 0.947 0.92v3.115z"/>
	<path d="m64.875 32.265v-1.177c0-0.77-0.629-1.381-1.416-1.381h-1.69v6.195h0.743v-2.257h0.797l0.965 2.257h0.805l-1.009-2.381c0.504-0.221 0.805-0.689 0.805-1.256zm-1.442 0.69h-0.921v-2.531h0.921c0.38 0 0.689 0.301 0.689 0.672v1.195c0 0.363-0.31 0.664-0.689 0.664z"/>
</svg>