<?xml version="1.0" encoding="utf-8"?>
<!-- Generator: Adobe Illustrator 19.1.0, SVG Export Plug-In . SVG Version: 6.00 Build 0)  -->
<svg version="1.1" id="Layer_1" xmlns="http://www.w3.org/2000/svg" xmlns:xlink="http://www.w3.org/1999/xlink" x="0px" y="0px"
	 viewBox="-866 523 185.6 36" style="enable-background:new -866 523 185.6 36;" xml:space="preserve">
<style type="text/css">
	.st0{fill:#FFFFFF;}
</style>
<path class="st0" d="M-860.7,523.3h-5.3v18h3.1v-5.8h2.2c2.4,0,4.3-1.9,4.3-4.4v-3.4C-856.4,525.2-858.3,523.3-860.7,523.3z
	 M-859.5,531.2c0,0.6-0.6,1.2-1.3,1.2h-2.1v-6.2h2.1c0.7,0,1.3,0.5,1.3,1.2L-859.5,531.2L-859.5,531.2z"/>
<path class="st0" d="M-850.8,523.3l-2.7,10.1v7.9h3v-5.3h4.2v5.3h3v-7.9l-2.7-10.1C-845.9,523.3-850.8,523.3-850.8,523.3z
	 M-850.1,532.9l1.5-6.6h0.5l1.5,6.6H-850.1z"/>
<path class="st0" d="M-829.3,541.2l-2.8-6.8c1.2-0.8,2-2.2,2-3.7v-3.2c0-2.4-1.9-4.3-4.3-4.3h-5.3v18h3.1v-6.1h1.5l2.5,6.1
	L-829.3,541.2L-829.3,541.2z M-833.2,530.9c0,0.7-0.6,1.2-1.3,1.2h-2.2v-5.9h2.2c0.7,0,1.3,0.5,1.3,1.2V530.9z"/>
<polygon class="st0" points="-825.7,526.1 -822.2,526.1 -822.2,538.4 -825.7,538.4 -825.7,541.2 -815.6,541.2 -815.6,538.4 
	-819.1,538.4 -819.1,526.1 -815.6,526.1 -815.6,523.3 -825.7,523.3 "/>
<path class="st0" d="M-807.1,541.5c2.8,0,5-2.3,5-5c0-5.9-7.1-5.7-7.1-8.7c0-1,0.8-1.8,1.9-1.8c1.1,0,1.9,1,1.9,2.3h3.1
	c0-3.2-2.2-5.3-5-5.3c-2.8,0-5,2.2-5,5c0,5.6,7.1,4.9,7.1,8.6c0,1-0.9,1.8-2,1.8h-0.3c-1.1,0-2-1-2-2v-0.8h-3.1v0.8c0,2.7,2.2,5,5,5
	H-807.1L-807.1,541.5z"/>
<polygon class="st0" points="-785.2,541.2 -782.1,541.2 -782.1,533.4 -776.6,533.4 -776.6,530.2 -782.1,530.2 -782.1,526.3 
	-776,526.3 -776,523.3 -785.2,523.3 "/>
<polygon class="st0" points="-772.3,526.1 -768.8,526.1 -768.8,538.4 -772.3,538.4 -772.3,541.2 -762.2,541.2 -762.2,538.4 
	-765.7,538.4 -765.7,526.1 -762.2,526.1 -762.2,523.3 -772.3,523.3 "/>
<polygon class="st0" points="-754.8,523.3 -757.9,523.3 -757.9,541.2 -747.9,541.2 -747.9,538.2 -754.8,538.2 "/>
<polygon class="st0" points="-745.6,526.1 -742.1,526.1 -742.1,538.4 -745.6,538.4 -745.6,541.2 -735.5,541.2 -735.5,538.4 
	-739,538.4 -739,526.1 -735.5,526.1 -735.5,523.3 -745.6,523.3 "/>
<path class="st0" d="M-726.2,523.3h-5.3v18h3.1v-5.8h2.2c2.4,0,4.3-1.9,4.3-4.4v-3.4C-721.9,525.2-723.8,523.3-726.2,523.3z
	 M-725.1,531.2c0,0.6-0.6,1.2-1.3,1.2h-2.1v-6.2h2.1c0.7,0,1.3,0.5,1.3,1.2V531.2z"/>
<path class="st0" d="M-712.9,523.3h-5.3v18h3.1v-5.8h2.2c2.4,0,4.3-1.9,4.3-4.4v-3.4C-708.6,525.2-710.5,523.3-712.9,523.3z
	 M-711.7,531.2c0,0.6-0.6,1.2-1.3,1.2h-2.1v-6.2h2.1c0.7,0,1.3,0.5,1.3,1.2V531.2z"/>
<path class="st0" d="M-699.8,523h-0.4c-2.8,0-5,2.3-5,5v8.4c0,2.7,2.2,5.1,5,5.1h0.4c2.8,0,5-2.3,5-5V528
	C-694.8,525.3-697,523-699.8,523z M-697.9,536.6c0,1.1-0.9,1.9-2,1.9h-0.3c-1.1,0-2-0.8-2-1.9v-8.7c0-1.1,0.9-1.9,2-1.9h0.3
	c1.1,0,2,0.8,2,1.9V536.6L-697.9,536.6z"/>
<path class="st0" d="M-683.5,523.3v13.3c0,1.1-0.9,2-2,2h-0.3c-1.1,0-2-0.9-2-2v-13.2h-3.1v13.2c0,2.7,2.2,5.1,5,5.1h0.4
	c2.8,0,5-2.3,5-5v-13.2C-680.4,523.3-683.5,523.3-683.5,523.3z"/>
<polygon class="st0" points="-866,558.9 -865.3,558.9 -865.3,556 -863.2,556 -863.2,555.3 -865.3,555.3 -865.3,553.4 -863,553.4 
	-863,552.7 -866,552.7 "/>
<polygon class="st0" points="-861.1,553.4 -859.7,553.4 -859.7,558.2 -861.1,558.2 -861.1,558.9 -857.6,558.9 -857.6,558.2 
	-859,558.2 -859,553.4 -857.6,553.4 -857.6,552.7 -861.1,552.7 "/>
<polygon class="st0" points="-854.8,552.7 -855.6,552.7 -855.6,558.9 -852.5,558.9 -852.5,558.2 -854.8,558.2 "/>
<polygon class="st0" points="-849.1,555.2 -849.1,555.2 -850,552.7 -850.9,552.7 -850.9,558.9 -850.1,558.9 -850.1,554.4 
	-850.2,554 -850.1,554 -850,554.4 -849.4,556 -848.8,556 -848.2,554.4 -848.1,554 -848,554 -848,554.4 -848,558.9 -847.3,558.9 
	-847.3,552.7 -848.2,552.7 "/>
<path class="st0" d="M-838.5,552.7h-1.6v6.2h1.6c0.9,0,1.7-0.7,1.7-1.6v-2.9C-836.8,553.4-837.6,552.7-838.5,552.7z M-837.6,557.3
	c0,0.5-0.4,0.9-0.9,0.9h-0.9v-4.8h0.9c0.5,0,0.9,0.4,0.9,0.9V557.3z"/>
<polygon class="st0" points="-834.9,553.4 -833.5,553.4 -833.5,558.2 -834.9,558.2 -834.9,558.9 -831.5,558.9 -831.5,558.2 
	-832.8,558.2 -832.8,553.4 -831.5,553.4 -831.5,552.7 -834.9,552.7 "/>
<path class="st0" d="M-826.4,555.3v-1.2c0-0.8-0.6-1.4-1.4-1.4h-1.7v6.2h0.7v-2.3h0.8l1,2.3h0.8l-1-2.4
	C-826.7,556.3-826.4,555.8-826.4,555.3z M-827.9,556h-0.9v-2.5h0.9c0.4,0,0.7,0.3,0.7,0.7v1.2C-827.2,555.7-827.5,556-827.9,556z"/>
<polygon class="st0" points="-823.7,556 -821.7,556 -821.7,555.3 -823.7,555.3 -823.7,553.4 -821.4,553.4 -821.4,552.7 
	-824.5,552.7 -824.5,558.9 -821.4,558.9 -821.4,558.2 -823.7,558.2 "/>
<path class="st0" d="M-817.6,553.3c0.5,0,0.9,0.4,0.9,0.9h0.7c0-0.9-0.7-1.6-1.7-1.6h0c-0.9,0-1.7,0.7-1.7,1.6v3.1
	c0,0.9,0.7,1.6,1.7,1.6h0c0.9,0,1.7-0.7,1.7-1.6v-0.2h-0.7v0.2c0,0.5-0.4,0.9-0.9,0.9c-0.5,0-1-0.4-1-0.9v-3.1
	C-818.6,553.8-818.1,553.3-817.6,553.3z"/>
<polygon class="st0" points="-814.5,553.4 -813.2,553.4 -813.2,558.9 -812.5,558.9 -812.5,553.4 -811.1,553.4 -811.1,552.7 
	-814.5,552.7 "/>
<path class="st0" d="M-807.8,552.6h-0.2c-0.9,0-1.7,0.7-1.7,1.6v3.1c0,0.9,0.7,1.6,1.7,1.6h0.2c0.9,0,1.7-0.7,1.7-1.6v-3.1
	C-806.1,553.4-806.9,552.6-807.8,552.6z M-806.9,557.4c0,0.5-0.4,0.9-0.9,0.9h-0.1c-0.5,0-1-0.4-1-0.9v-3.1c0-0.5,0.4-0.9,1-0.9h0.1
	c0.5,0,0.9,0.4,0.9,0.9V557.4z"/>
<path class="st0" d="M-801.1,555.3v-1.2c0-0.8-0.6-1.4-1.4-1.4h-1.7v6.2h0.7v-2.3h0.8l1,2.3h0.8l-1-2.4
	C-801.4,556.3-801.1,555.8-801.1,555.3z M-802.6,556h-0.9v-2.5h0.9c0.4,0,0.7,0.3,0.7,0.7v1.2C-801.9,555.7-802.2,556-802.6,556z"/>
</svg>
