<?xml version="1.0" encoding="utf-8"?>
<!-- Generator: Adobe Illustrator 16.0.0, SVG Export Plug-In . SVG Version: 6.00 Build 0)  -->
<!DOCTYPE svg PUBLIC "-//W3C//DTD SVG 1.1//EN" "http://www.w3.org/Graphics/SVG/1.1/DTD/svg11.dtd">
<svg version="1.1" id="Layer_1" xmlns="http://www.w3.org/2000/svg" xmlns:xlink="http://www.w3.org/1999/xlink" x="0px" y="0px"
	 width="30.557px" height="33px" viewBox="0 0 30.557 33" enable-background="new 0 0 30.557 33" xml:space="preserve">
<path d="M24.702,21.291c-1.743,0-3.291,0.776-4.364,1.985L8.433,17.323c0.053-0.266,0.083-0.541,0.083-0.823
	s-0.03-0.557-0.083-0.823l11.905-5.954c1.073,1.209,2.621,1.986,4.364,1.986c3.233,0,5.855-2.621,5.855-5.854
	C30.557,2.621,27.935,0,24.702,0s-5.855,2.621-5.855,5.855c0,0.404,0.042,0.799,0.12,1.181L6.812,13.113
	c-0.713-0.54-1.592-0.871-2.554-0.871C1.907,12.242,0,14.148,0,16.5s1.907,4.258,4.258,4.258c0.962,0,1.841-0.332,2.554-0.872
	l12.154,6.078c-0.078,0.381-0.12,0.776-0.12,1.181c0,3.235,2.622,5.855,5.855,5.855s5.855-2.62,5.855-5.855
	C30.557,23.91,27.935,21.291,24.702,21.291z"/>
</svg>
