<?xml version="1.0" encoding="utf-8"?>
<!-- Generator: Adobe Illustrator 16.0.0, SVG Export Plug-In . SVG Version: 6.00 Build 0)  -->
<!DOCTYPE svg PUBLIC "-//W3C//DTD SVG 1.1//EN" "http://www.w3.org/Graphics/SVG/1.1/DTD/svg11.dtd">
<svg version="1.1" id="Layer_1" xmlns="http://www.w3.org/2000/svg" xmlns:xlink="http://www.w3.org/1999/xlink" x="0px" y="0px"
	 width="62.322px" height="56.4px" viewBox="0 0 62.322 56.4" enable-background="new 0 0 62.322 56.4" xml:space="preserve">
<path d="M35.749,15.179c7.12-4.433,10.92,1.802,7.277,8.862c-3.637,7.053-6.96,11.652-8.7,11.652c-1.737,0-3.073-4.721-5.063-12.969
	c-2.058-8.528-2.045-23.89-10.597-22.148C10.6,2.218,0,15.346,0,15.346l2.532,3.443c0,0,5.22-4.268,6.96-2.134
	c1.74,2.134,8.382,27.899,10.6,32.651c1.935,4.168,7.274,9.68,13.129,5.744c5.851-3.935,25.308-21.165,28.791-41.512
	C65.492-6.803,38.598-2.542,35.749,15.179z"/>
</svg>
