<?xml version="1.0" encoding="UTF-8" standalone="no"?>
<!-- Created with Inkscape (http://www.inkscape.org/) -->

<svg
   xmlns:dc="http://purl.org/dc/elements/1.1/"
   xmlns:cc="http://creativecommons.org/ns#"
   xmlns:rdf="http://www.w3.org/1999/02/22-rdf-syntax-ns#"
   xmlns:svg="http://www.w3.org/2000/svg"
   xmlns="http://www.w3.org/2000/svg"
   xmlns:sodipodi="http://sodipodi.sourceforge.net/DTD/sodipodi-0.dtd"
   xmlns:inkscape="http://www.inkscape.org/namespaces/inkscape"
   width="4.3002205mm"
   height="4.2333331mm"
   viewBox="0 0 4.3002205 4.2333331"
   version="1.1"
   id="svg1457"
   inkscape:version="0.92.4 (f8dce91, 2019-08-02)"
   sodipodi:docname="social-in.svg">
  <defs
     id="defs1451" />
  <sodipodi:namedview
     id="base"
     pagecolor="#ffffff"
     bordercolor="#666666"
     borderopacity="1.0"
     inkscape:pageopacity="0.0"
     inkscape:pageshadow="2"
     inkscape:zoom="2.8"
     inkscape:cx="128.40323"
     inkscape:cy="44.55957"
     inkscape:document-units="mm"
     inkscape:current-layer="layer1"
     showgrid="false"
     inkscape:window-width="1861"
     inkscape:window-height="1025"
     inkscape:window-x="59"
     inkscape:window-y="27"
     inkscape:window-maximized="1"
     fit-margin-top="0"
     fit-margin-left="0"
     fit-margin-right="0"
     fit-margin-bottom="0" />
  <metadata
     id="metadata1454">
    <rdf:RDF>
      <cc:Work
         rdf:about="">
        <dc:format>image/svg+xml</dc:format>
        <dc:type
           rdf:resource="http://purl.org/dc/dcmitype/StillImage" />
        <dc:title></dc:title>
      </cc:Work>
    </rdf:RDF>
  </metadata>
  <g
     inkscape:label="Layer 1"
     inkscape:groupmode="layer"
     id="layer1"
     transform="translate(-49.58436,-139.74301)">
    <g
       id="g863"
       transform="matrix(0.06931368,0,0,0.06931368,49.58436,139.74301)"
       style="fill:#000000">
      <path
         id="path857"
         d="M 7.515,0 C 2.971,0 0,3.063 0,7.083 0,11.02 2.883,14.17 7.342,14.17 h 0.085 c 4.631,0 7.516,-3.15 7.516,-7.087 C 14.856,3.063 12.058,0 7.515,0 Z"
         inkscape:connector-curvature="0"
         style="fill:#000000" />
      <rect
         id="rect859"
         height="41.001999"
         width="13.283"
         y="20.073"
         x="0"
         style="fill:#000000" />
      <path
         id="path861"
         d="m 46.747,19.108 c -7.052,0 -10.209,3.98 -11.973,6.772 V 20.072 H 21.491 c 0.175,3.848 0,41.003 0,41.003 H 34.774 V 38.176 c 0,-1.226 0.087,-2.448 0.438,-3.325 0.96,-2.449 3.146,-4.984 6.815,-4.984 4.808,0 6.731,3.76 6.731,9.271 V 61.075 H 62.04 V 37.564 C 62.04,24.97 55.487,19.108 46.747,19.108 Z"
         inkscape:connector-curvature="0"
         style="fill:#000000" />
    </g>
  </g>
</svg>
