<?xml version="1.0" encoding="utf-8"?>
<!-- Generator: Adobe Illustrator 16.0.0, SVG Export Plug-In . SVG Version: 6.00 Build 0)  -->
<!DOCTYPE svg PUBLIC "-//W3C//DTD SVG 1.1//EN" "http://www.w3.org/Graphics/SVG/1.1/DTD/svg11.dtd">
<svg version="1.1" id="Layer_1" xmlns="http://www.w3.org/2000/svg" xmlns:xlink="http://www.w3.org/1999/xlink" x="0px" y="0px"
	 width="88.491px" height="34.595px" viewBox="0 0 88.491 34.595" enable-background="new 0 0 88.491 34.595" xml:space="preserve">
<g>
	<rect y="0.198" fill-rule="evenodd" clip-rule="evenodd" fill="#231F20" width="8.698" height="34.002"/>
	<path fill-rule="evenodd" clip-rule="evenodd" fill="#231F20" d="M26.918,16.012l-1.384-8.5c-0.396-2.767-0.79-5.14-0.988-7.314
		H13.08V34.2h7.71V11.861L23.953,34.2h5.535l3.163-22.932V34.2h7.71V0.198H28.895L26.918,16.012z"/>
	<path fill-rule="evenodd" clip-rule="evenodd" fill="#231F20" d="M62.732,2.767c-0.791-0.988-1.978-1.581-3.361-1.976
		c-1.383-0.396-3.954-0.593-8.104-0.593h-6.524V34.2h10.479c2.174,0,3.756-0.197,4.743-0.396c0.989-0.196,1.978-0.592,2.57-1.185
		c0.791-0.593,1.187-1.384,1.582-2.372c0.197-0.989,0.395-3.163,0.395-6.129V12.257c0-3.163-0.197-5.338-0.395-6.524
		C63.918,4.547,63.523,3.558,62.732,2.767z M56.208,23.525c0,2.175-0.197,3.559-0.395,4.151c-0.198,0.592-0.989,0.791-2.372,0.791
		V6.129c0.988,0,1.581,0,1.976,0.197c0.396,0.198,0.594,0.593,0.594,0.988c0.197,0.396,0.197,1.384,0.197,2.966V23.525z"/>
	<path fill-rule="evenodd" clip-rule="evenodd" fill="#231F20" d="M88.293,12.849c0-0.592-0.396-1.185-0.79-1.976
		c-0.396-0.593-1.187-1.187-1.978-1.581c-0.791-0.396-1.779-0.594-2.966-0.594c-0.987,0-2.372,0.198-3.163,0.594
		c-0.79,0.394-1.58,0.988-2.371,1.779V0h-8.502v0.198V34.2h7.908l0.594-2.174c0.791,0.79,1.581,1.581,2.371,1.977
		c0.791,0.396,2.176,0.592,3.163,0.592c1.385,0,2.57-0.395,3.56-1.185c0.987-0.791,1.581-1.582,1.976-2.57
		c0.198-0.989,0.396-2.57,0.396-4.547v-9.49C88.491,14.827,88.491,13.443,88.293,12.849z M79.793,25.897c0,1.582,0,2.57-0.198,3.162
		c-0.198,0.396-0.791,0.594-1.384,0.594s-0.791-0.197-0.988-0.594c-0.197-0.395-0.197-1.383-0.197-2.965v-8.896
		c0-1.581,0-2.57,0.197-2.966c0.197-0.394,0.594-0.593,0.988-0.593c0.593,0,1.186,0.199,1.384,0.593
		c0.198,0.396,0.198,1.385,0.198,2.769V25.897z"/>
</g>
</svg>
