<?xml version="1.0" encoding="utf-8"?>
<!-- Generator: Adobe Illustrator 16.0.0, SVG Export Plug-In . SVG Version: 6.00 Build 0)  -->
<!DOCTYPE svg PUBLIC "-//W3C//DTD SVG 1.1//EN" "http://www.w3.org/Graphics/SVG/1.1/DTD/svg11.dtd">
<svg version="1.1" id="Layer_1" xmlns="http://www.w3.org/2000/svg" xmlns:xlink="http://www.w3.org/1999/xlink" x="0px" y="0px"
	 width="202.5px" height="202.5px" viewBox="0 0 202.5 202.5" enable-background="new 0 0 202.5 202.5" xml:space="preserve">
<g>
	<path fill="#231F20" d="M101.2,72.7c-15.7,0-28.5,12.8-28.5,28.5s12.8,28.5,28.5,28.5s28.5-12.8,28.5-28.5S116.9,72.7,101.2,72.7z"
		/>
	<path fill="#231F20" d="M167.399,0H35C15.7,0,0,15.7,0,35v132.5c0,19.3,15.7,35,35,35h132.5c19.3,0,35-15.7,35-35V35
		C202.399,15.7,186.7,0,167.399,0z M101.2,159.7c-32.2,0-58.5-26.2-58.5-58.5s26.2-58.5,58.5-58.5s58.5,26.2,58.5,58.5
		S133.4,159.7,101.2,159.7z M166.6,50.3c-8,0-14.5-6.5-14.5-14.5s6.5-14.5,14.5-14.5s14.5,6.5,14.5,14.5S174.6,50.3,166.6,50.3z"/>
</g>
</svg>
