<?xml version="1.0" encoding="utf-8"?>
<!-- Generator: Adobe Illustrator 16.0.0, SVG Export Plug-In . SVG Version: 6.00 Build 0)  -->
<!DOCTYPE svg PUBLIC "-//W3C//DTD SVG 1.1//EN" "http://www.w3.org/Graphics/SVG/1.1/DTD/svg11.dtd">
<svg version="1.1" id="Layer_1" xmlns="http://www.w3.org/2000/svg" xmlns:xlink="http://www.w3.org/1999/xlink" x="0px" y="0px"
	 width="62.04px" height="61.076px" viewBox="0 0 62.04 61.076" enable-background="new 0 0 62.04 61.076" xml:space="preserve">
<g>
	<path d="M7.515,0C2.971,0,0,3.063,0,7.083c0,3.937,2.883,7.087,7.342,7.087h0.085c4.631,0,7.516-3.15,7.516-7.087
		C14.856,3.063,12.058,0,7.515,0z"/>
	<rect y="20.073" width="13.283" height="41.002"/>
	<path d="M46.747,19.108c-7.052,0-10.209,3.98-11.973,6.772v-5.808H21.491c0.175,3.848,0,41.003,0,41.003h13.283V38.176
		c0-1.226,0.087-2.448,0.438-3.325c0.96-2.449,3.146-4.984,6.815-4.984c4.808,0,6.731,3.76,6.731,9.271v21.937H62.04V37.564
		C62.04,24.97,55.487,19.108,46.747,19.108z"/>
</g>
</svg>
