<?xml version="1.0" encoding="UTF-8" standalone="no"?>
<!-- Created with Inkscape (http://www.inkscape.org/) -->

<svg
   xmlns:dc="http://purl.org/dc/elements/1.1/"
   xmlns:cc="http://creativecommons.org/ns#"
   xmlns:rdf="http://www.w3.org/1999/02/22-rdf-syntax-ns#"
   xmlns:svg="http://www.w3.org/2000/svg"
   xmlns="http://www.w3.org/2000/svg"
   xmlns:sodipodi="http://sodipodi.sourceforge.net/DTD/sodipodi-0.dtd"
   xmlns:inkscape="http://www.inkscape.org/namespaces/inkscape"
   width="4.4979157mm"
   height="4.4979157mm"
   viewBox="0 0 4.4979157 4.4979157"
   version="1.1"
   id="svg1457"
   inkscape:version="0.92.4 (f8dce91, 2019-08-02)"
   sodipodi:docname="social.svg">
  <defs
     id="defs1451" />
  <sodipodi:namedview
     id="base"
     pagecolor="#ffffff"
     bordercolor="#666666"
     borderopacity="1.0"
     inkscape:pageopacity="0.0"
     inkscape:pageshadow="2"
     inkscape:zoom="0.7"
     inkscape:cx="145.39699"
     inkscape:cy="-168.41286"
     inkscape:document-units="mm"
     inkscape:current-layer="layer1"
     showgrid="false"
     inkscape:window-width="1861"
     inkscape:window-height="1025"
     inkscape:window-x="59"
     inkscape:window-y="27"
     inkscape:window-maximized="1"
     fit-margin-top="0"
     fit-margin-left="0"
     fit-margin-right="0"
     fit-margin-bottom="0" />
  <metadata
     id="metadata1454">
    <rdf:RDF>
      <cc:Work
         rdf:about="">
        <dc:format>image/svg+xml</dc:format>
        <dc:type
           rdf:resource="http://purl.org/dc/dcmitype/StillImage" />
        <dc:title></dc:title>
      </cc:Work>
    </rdf:RDF>
  </metadata>
  <g
     inkscape:label="Layer 1"
     inkscape:groupmode="layer"
     id="layer1"
     transform="translate(-66.542713,-109.54271)">
    <g
       id="g845"
       transform="matrix(0.02221193,0,0,0.02221193,66.542713,109.54271)"
       style="fill:#000000">
      <path
         id="path841"
         d="m 101.2,72.7 c -15.7,0 -28.5,12.8 -28.5,28.5 0,15.7 12.8,28.5 28.5,28.5 15.7,0 28.5,-12.8 28.5,-28.5 0,-15.7 -12.8,-28.5 -28.5,-28.5 z"
         inkscape:connector-curvature="0"
         style="fill:#000000" />
      <path
         id="path843"
         d="M 167.399,0 H 35 C 15.7,0 0,15.7 0,35 v 132.5 c 0,19.3 15.7,35 35,35 h 132.5 c 19.3,0 35,-15.7 35,-35 V 35 C 202.399,15.7 186.7,0 167.399,0 Z M 101.2,159.7 c -32.2,0 -58.5,-26.2 -58.5,-58.5 0,-32.3 26.2,-58.5 58.5,-58.5 32.3,0 58.5,26.2 58.5,58.5 0,32.3 -26.3,58.5 -58.5,58.5 z M 166.6,50.3 c -8,0 -14.5,-6.5 -14.5,-14.5 0,-8 6.5,-14.5 14.5,-14.5 8,0 14.5,6.5 14.5,14.5 0,8 -6.5,14.5 -14.5,14.5 z"
         inkscape:connector-curvature="0"
         style="fill:#000000" />
    </g>
  </g>
</svg>
